<?xml version="1.0" standalone="no"?>
<!DOCTYPE svg PUBLIC "-//W3C//DTD SVG 20010904//EN"
 "http://www.w3.org/TR/2001/REC-SVG-20010904/DTD/svg10.dtd">
<svg version="1.0" xmlns="http://www.w3.org/2000/svg"
 width="512.000000pt" height="512.000000pt" viewBox="0 0 512.000000 512.000000"
 preserveAspectRatio="xMidYMid meet">

<g transform="translate(0.000000,512.000000) scale(0.100000,-0.100000)"
fill="#000000" stroke="none">
<path d="M1365 5110 c-190 -39 -342 -182 -390 -365 -22 -86 -22 -529 0 -583
18 -43 50 -78 85 -97 20 -10 28 -26 37 -68 21 -99 60 -166 150 -256 l83 -84 0
-56 0 -57 -247 -53 c-193 -41 -266 -61 -328 -90 -185 -87 -300 -256 -320 -472
l-7 -76 -79 -10 c-145 -19 -253 -96 -313 -223 l-31 -65 -3 -715 c-3 -748 -2
-781 40 -864 51 -99 173 -188 280 -204 l53 -7 5 -325 c5 -317 6 -326 28 -362
38 -61 87 -78 228 -78 144 0 188 16 231 81 l28 42 3 324 3 323 439 0 439 0 3
-297 c3 -283 4 -300 25 -338 28 -52 68 -89 123 -114 44 -20 60 -21 1070 -21
1010 0 1026 1 1070 21 55 25 95 62 123 114 21 38 22 55 25 343 2 202 7 302 14
302 5 0 33 12 62 26 72 36 149 115 183 188 l28 61 3 314 c2 173 1 325 -3 338
-8 32 -60 54 -94 42 -50 -19 -50 -24 -51 -338 0 -203 -4 -306 -12 -335 -13
-41 -93 -136 -116 -136 -9 0 -12 53 -12 203 0 234 -12 305 -66 416 -25 51 -58
95 -103 140 -96 97 -171 130 -406 181 -104 22 -220 48 -257 56 l-68 16 0 93 0
93 33 21 c45 28 135 124 176 189 44 70 89 200 97 285 l7 68 276 -3 c261 -3
278 -4 317 -25 54 -29 110 -93 123 -140 7 -22 11 -147 11 -304 0 -254 1 -267
21 -293 27 -34 77 -36 108 -2 22 24 22 25 19 322 l-3 299 -32 67 c-56 119
-160 197 -289 218 -32 6 -170 10 -306 10 l-246 0 -4 163 c-3 154 -4 165 -31
219 -47 95 -130 153 -244 169 -45 6 -87 22 -141 52 l-77 42 -200 0 c-180 0
-206 -3 -257 -22 -32 -12 -72 -31 -89 -43 l-31 -22 -71 20 c-40 12 -137 35
-217 52 -80 16 -179 38 -220 48 l-75 17 -3 53 -3 53 78 77 c88 86 134 164 157
263 9 35 20 65 27 68 22 7 80 64 97 95 15 27 17 66 17 311 0 271 -1 282 -24
338 -47 118 -155 195 -296 211 -44 5 -77 17 -125 46 -36 21 -85 44 -110 49
-53 12 -367 13 -425 1z m431 -166 c27 -15 66 -35 86 -46 20 -11 70 -24 110
-30 94 -13 151 -45 180 -101 18 -34 23 -63 26 -154 3 -86 1 -113 -8 -113 -7 0
-37 23 -66 50 -68 64 -123 89 -195 90 -47 0 -72 -8 -160 -51 -57 -28 -151 -67
-209 -87 -93 -31 -120 -35 -230 -39 -88 -3 -138 0 -170 9 l-45 14 0 115 c1
104 3 118 28 166 52 100 127 163 226 189 27 8 114 13 212 13 160 1 167 0 215
-25z m177 -465 c12 -7 45 -33 73 -59 28 -27 74 -60 102 -74 50 -26 52 -28 52
-69 0 -51 -23 -87 -54 -87 -46 0 -66 -29 -77 -110 -14 -100 -48 -167 -119
-237 -113 -112 -242 -165 -348 -144 -115 23 -269 136 -325 239 -15 28 -33 84
-41 133 -15 89 -36 119 -80 119 -35 0 -46 20 -46 83 0 52 2 58 18 52 9 -4 73
-10 142 -12 99 -4 144 -1 220 15 105 21 277 86 355 132 53 31 92 37 128 19z
m-385 -930 c59 -10 128 -5 210 17 21 6 22 4 22 -60 0 -75 -14 -111 -60 -150
-43 -35 -100 -50 -149 -36 -84 22 -130 91 -131 194 0 56 1 58 23 52 12 -3 50
-11 85 -17z m-229 -196 c21 -58 116 -146 181 -169 79 -26 173 -23 241 8 65 30
129 92 158 153 12 25 26 45 31 45 12 0 463 -100 467 -103 1 -2 -8 -25 -21 -52
-34 -72 -46 -141 -46 -270 l0 -115 -646 -2 -646 -3 -24 -28 c-29 -34 -30 -56
-3 -91 l20 -26 648 0 648 0 7 -62 c20 -183 129 -378 265 -472 l41 -29 0 -93
c0 -89 -1 -94 -22 -99 -13 -3 -125 -28 -250 -55 -124 -27 -249 -58 -277 -69
-110 -41 -230 -151 -286 -261 -52 -102 -58 -140 -63 -397 l-4 -243 -724 0
c-792 0 -764 -2 -828 58 -16 15 -39 50 -52 77 l-24 50 0 696 c0 769 -1 750 63
817 70 74 82 76 375 82 246 5 265 6 278 24 20 28 17 69 -5 97 -18 23 -26 24
-151 27 l-133 4 7 65 c17 167 114 306 249 358 45 17 454 112 492 114 16 1 25
-9 34 -36z m1804 -47 c61 -31 103 -45 149 -50 76 -9 117 -32 146 -84 21 -38
22 -50 22 -283 0 -182 -4 -260 -15 -308 -59 -248 -304 -424 -533 -382 -181 33
-324 163 -388 351 -17 48 -19 87 -19 310 0 245 1 257 23 305 39 85 113 147
202 171 25 7 108 13 186 13 l141 1 86 -44z m-163 -1266 c25 0 73 6 108 14 l62
13 0 -54 0 -53 -170 0 -170 0 0 53 0 54 63 -13 c34 -8 82 -14 107 -14z m528
-289 c174 -38 287 -68 320 -85 105 -53 190 -167 212 -285 5 -29 10 -139 10
-243 l0 -190 -65 60 c-77 70 -187 127 -287 148 -108 23 -1412 16 -1478 -8
-108 -38 -193 -89 -262 -156 l-48 -46 0 191 c0 106 5 216 11 245 16 75 60 158
112 209 77 77 123 95 410 159 l262 58 267 1 267 1 269 -59z m177 -746 c156
-41 279 -154 337 -311 20 -54 22 -78 22 -277 l1 -219 -28 -24 -28 -24 -1005 0
c-670 0 -1012 3 -1025 10 -41 23 -49 59 -49 237 0 261 32 364 145 478 66 67
134 107 216 129 83 22 1329 23 1414 1z m-2957 -525 c1 -157 0 -295 -3 -308 -5
-22 -9 -23 -108 -20 l-102 3 -3 308 -2 308 107 -3 108 -3 3 -285z"/>
<path d="M3527 5104 c-31 -10 -64 -31 -92 -59 -72 -71 -75 -93 -75 -495 0
-402 3 -424 75 -495 68 -69 103 -75 402 -75 l254 0 24 -25 c24 -23 25 -30 25
-152 0 -150 10 -193 51 -227 39 -34 104 -36 143 -5 15 12 90 104 167 205 77
101 145 187 152 191 7 4 75 10 152 13 108 5 148 10 175 24 49 25 88 64 113
111 21 39 22 49 22 435 0 366 -1 398 -19 430 -26 49 -64 88 -111 113 -40 22
-44 22 -725 24 -585 2 -692 0 -733 -13z m1400 -154 c22 -13 34 -29 38 -52 3
-18 5 -187 3 -375 -4 -424 15 -385 -191 -394 -78 -3 -154 -10 -168 -16 -47
-20 -89 -65 -195 -204 -58 -76 -110 -141 -115 -144 -5 -4 -9 34 -9 91 0 115
-18 164 -81 217 -61 53 -90 57 -368 57 -280 0 -300 4 -320 61 -15 44 -15 674
0 718 22 62 -1 60 719 61 632 0 656 -1 687 -20z"/>
</g>
</svg>
