<?xml version="1.0" standalone="no"?>
<!DOCTYPE svg PUBLIC "-//W3C//DTD SVG 20010904//EN"
 "http://www.w3.org/TR/2001/REC-SVG-20010904/DTD/svg10.dtd">
<svg version="1.0" xmlns="http://www.w3.org/2000/svg"
 width="512.000000pt" height="512.000000pt" viewBox="0 0 512.000000 512.000000"
 preserveAspectRatio="xMidYMid meet">

<g transform="translate(0.000000,512.000000) scale(0.100000,-0.100000)"
fill="#000000" stroke="none">
<path d="M80 3680 l0 -1360 1720 0 1720 0 0 -275 c0 -170 -4 -275 -10 -275 -5
0 -38 -27 -73 -60 -72 -67 -119 -145 -143 -241 -32 -125 -3 -345 72 -532 20
-49 34 -90 32 -91 -1 -2 -41 -16 -88 -31 -112 -36 -193 -79 -234 -126 l-34
-37 -46 44 c-54 52 -110 81 -226 119 -47 15 -87 29 -88 31 -2 1 12 42 32 91
75 187 104 407 72 532 -46 177 -177 310 -353 356 -251 66 -512 -95 -579 -356
-32 -125 -3 -345 72 -532 20 -49 34 -90 32 -91 -1 -2 -41 -16 -88 -31 -109
-36 -154 -58 -212 -106 l-47 -39 -46 49 c-29 31 -77 65 -126 91 l-79 41 0 282
c0 222 -3 296 -15 342 -45 172 -179 305 -352 350 -249 65 -511 -94 -578 -350
-12 -46 -15 -120 -15 -342 l0 -282 -80 -42 c-99 -51 -178 -132 -211 -216 -22
-54 -24 -76 -27 -285 l-3 -228 2241 0 2242 0 -4 213 c-3 200 -5 215 -28 267
-13 30 -44 78 -67 107 l-43 53 110 0 110 0 0 494 0 494 43 -15 c84 -30 214 4
278 74 15 15 37 48 50 73 l24 45 3 534 c2 360 -1 552 -8 587 -27 129 -130 264
-246 321 -63 32 -131 51 -286 79 l-98 18 0 70 c0 64 3 73 29 101 44 44 98 139
112 196 l13 49 59 0 c90 0 135 17 192 75 79 78 95 166 50 264 l-25 54 21 61
c30 86 37 210 15 277 -36 108 -108 180 -217 215 -30 9 -85 41 -124 70 -82 62
-231 135 -330 160 -66 17 -175 19 -2092 21 l-2023 3 0 -1360z m3337 1140
c-128 -138 -171 -344 -108 -527 l21 -62 -25 -53 c-45 -97 -29 -185 50 -263 57
-58 102 -75 193 -75 60 0 60 0 66 -32 10 -54 60 -150 105 -200 40 -44 41 -48
41 -115 l0 -69 -172 -34 c-95 -18 -217 -48 -272 -66 l-98 -33 -326 289 c-182
162 -346 300 -371 313 -37 17 -63 22 -131 22 -73 0 -93 -4 -142 -28 -107 -53
-162 -143 -163 -267 0 -63 5 -85 29 -133 25 -52 63 -90 335 -335 380 -342 437
-380 621 -418 106 -21 227 -14 358 20 l92 24 0 -149 0 -149 -1640 0 -1640 0 0
1200 0 1200 1616 0 1616 0 -55 -60z m711 44 c136 -28 252 -87 350 -178 38 -35
56 -44 96 -49 52 -5 87 -26 120 -71 18 -23 21 -41 20 -109 -1 -45 -6 -94 -12
-109 l-12 -28 -128 0 c-71 0 -153 5 -183 10 -82 16 -168 61 -237 124 l-62 58
-62 -58 c-69 -63 -155 -108 -237 -124 -30 -5 -112 -10 -183 -10 l-128 0 -11
27 c-17 46 -22 145 -10 205 17 78 77 167 144 211 152 101 352 139 535 101z m1
-603 c66 -43 133 -71 204 -85 l62 -13 0 -164 c0 -159 -1 -166 -28 -216 -60
-116 -160 -178 -287 -178 -127 0 -227 62 -287 178 -27 50 -28 57 -28 216 l0
164 64 13 c63 13 158 54 216 92 17 11 32 21 34 21 2 1 25 -12 50 -28z m-529
-181 l0 -80 -55 0 c-67 0 -105 29 -105 80 0 51 38 80 105 80 l55 0 0 -80z
m1095 55 c16 -15 25 -36 25 -55 0 -51 -38 -80 -105 -80 l-55 0 0 80 0 80 55 0
c46 0 60 -4 80 -25z m-2250 -385 c15 -6 69 -47 121 -93 l93 -82 -102 -102
c-56 -57 -104 -103 -108 -103 -3 0 -49 42 -102 93 -100 96 -114 121 -103 181
17 87 115 139 201 106z m1635 -310 c25 0 71 7 104 14 l58 14 -4 -62 c-11 -182
-161 -269 -264 -154 -29 31 -54 111 -54 168 l0 47 58 -13 c31 -8 77 -14 102
-14z m-1096 -155 c108 -96 198 -175 199 -175 2 0 63 20 137 45 74 25 203 59
285 76 83 17 157 32 165 34 10 3 21 -9 33 -39 27 -65 80 -121 145 -153 47 -23
70 -28 132 -28 62 0 85 5 132 28 65 32 118 88 145 153 14 34 22 42 38 38 11
-2 75 -15 142 -29 67 -13 138 -31 157 -39 54 -22 131 -100 157 -159 23 -51 24
-60 27 -384 l3 -333 -120 0 -121 0 0 283 0 283 26 53 27 53 -49 49 c-26 27
-53 49 -60 49 -14 0 -57 -61 -81 -115 -16 -36 -18 -80 -21 -427 l-3 -388 -399
0 -399 0 -3 388 c-3 347 -5 391 -21 427 -24 54 -67 115 -81 115 -7 0 -34 -22
-61 -50 -46 -47 -48 -51 -35 -75 7 -14 11 -27 9 -29 -2 -2 -47 -14 -99 -27
-186 -47 -354 -26 -483 60 -31 20 -118 93 -195 162 l-140 126 102 102 c55 55
104 101 107 101 4 0 95 -79 203 -175z m1894 -1250 l-3 -125 -33 -32 c-28 -28
-39 -33 -82 -33 -43 0 -54 5 -82 33 l-33 32 -3 125 -4 125 122 0 122 0 -4
-125z m-398 -595 l0 -560 -175 0 -175 0 16 38 c80 185 114 420 81 549 -59 228
-268 387 -489 371 l-58 -4 0 83 0 83 400 0 400 0 0 -560z m-3449 199 c67 -36
97 -68 137 -143 l27 -51 3 -442 3 -443 -321 0 -321 0 3 443 3 442 25 50 c42
86 123 152 215 176 62 17 161 2 226 -32z m1440 0 c67 -36 97 -68 137 -143 25
-47 27 -60 26 -166 -1 -134 -24 -237 -85 -367 l-38 -83 -191 0 -191 0 -39 83
c-59 126 -83 231 -84 367 -1 103 2 120 24 165 42 86 123 152 215 176 62 17
161 2 226 -32z m1440 0 c67 -36 97 -68 137 -143 25 -47 27 -60 26 -166 -1
-134 -24 -237 -85 -367 l-38 -83 -191 0 -191 0 -39 83 c-59 126 -83 231 -84
367 -1 103 2 120 24 165 42 86 123 152 215 176 62 17 161 2 226 -32z m-1221
-966 c135 -45 148 -51 195 -98 63 -62 75 -101 75 -234 l0 -101 -640 0 -640 0
0 101 c0 133 12 172 75 234 46 45 62 53 190 96 l140 47 230 1 229 1 146 -47z
m1440 0 c135 -45 148 -51 195 -98 63 -62 75 -101 75 -234 l0 -101 -640 0 -640
0 0 101 c0 133 12 172 75 234 46 45 62 53 190 96 l140 47 230 1 229 1 146 -47z
m-3250 -273 l479 0 3 136 3 136 50 -34 c33 -23 58 -51 75 -84 22 -43 25 -63
28 -181 l4 -133 -642 0 -642 0 4 133 c3 119 6 138 28 182 18 34 42 61 75 83
l50 34 3 -136 3 -136 479 0z"/>
<path d="M1200 4240 l0 -320 -80 0 -80 0 0 240 0 240 -80 0 -80 0 0 -240 0
-240 -80 0 -80 0 0 160 0 160 -80 0 -80 0 0 -160 0 -160 -80 0 -80 0 0 -80 0
-80 720 0 720 0 0 80 0 80 -80 0 -80 0 0 160 0 160 -80 0 -80 0 0 -160 0 -160
-80 0 -80 0 0 320 0 320 -80 0 -80 0 0 -320z"/>
<path d="M400 3520 l0 -80 80 0 80 0 0 80 0 80 -80 0 -80 0 0 -80z"/>
<path d="M720 3520 l0 -80 400 0 400 0 0 80 0 80 -400 0 -400 0 0 -80z"/>
<path d="M1680 3520 l0 -80 80 0 80 0 0 80 0 80 -80 0 -80 0 0 -80z"/>
<path d="M400 2720 l0 -80 80 0 80 0 0 80 0 80 -80 0 -80 0 0 -80z"/>
<path d="M720 2720 l0 -80 360 0 360 0 0 80 0 80 -360 0 -360 0 0 -80z"/>
</g>
</svg>
