<?xml version="1.0" standalone="no"?>
<!DOCTYPE svg PUBLIC "-//W3C//DTD SVG 20010904//EN"
 "http://www.w3.org/TR/2001/REC-SVG-20010904/DTD/svg10.dtd">
<svg version="1.0" xmlns="http://www.w3.org/2000/svg"
 width="512.000000pt" height="512.000000pt" viewBox="0 0 512.000000 512.000000"
 preserveAspectRatio="xMidYMid meet">

<g transform="translate(0.000000,512.000000) scale(0.100000,-0.100000)"
fill="#000000" stroke="none">
<path d="M1685 4465 c-429 -118 -790 -216 -803 -219 -19 -6 -22 -13 -22 -60
l0 -53 485 -173 c267 -95 485 -176 485 -179 0 -4 -31 -85 -69 -181 -46 -118
-65 -177 -57 -181 6 -4 184 -69 395 -144 l383 -137 387 137 c212 76 390 141
394 145 4 4 -24 87 -63 185 -39 97 -70 178 -68 180 7 4 824 295 831 295 4 0 7
-163 7 -361 l0 -361 -31 -36 c-28 -32 -31 -40 -27 -84 6 -56 33 -92 85 -109
71 -23 144 13 164 81 15 48 7 81 -31 124 l-30 33 -2 438 -3 438 -805 218
c-443 121 -809 218 -815 218 -5 -1 -361 -97 -790 -214z"/>
<path d="M1622 3228 c-46 -117 -56 -176 -56 -333 1 -120 5 -165 22 -227 141
-515 667 -809 1167 -651 300 95 527 329 616 635 26 92 37 295 20 394 -13 76
-58 221 -71 229 -5 3 -195 -62 -423 -143 l-415 -148 -413 148 c-228 81 -417
148 -420 148 -4 0 -16 -24 -27 -52z"/>
<path d="M3898 2803 c-47 -120 -83 -221 -80 -225 17 -18 135 -39 218 -39 97 0
224 25 224 45 0 6 -38 106 -84 221 l-84 210 -53 3 -54 3 -87 -218z"/>
<path d="M1310 1843 c-59 -10 -153 -47 -207 -82 -77 -50 -138 -120 -180 -208
-67 -140 -66 -131 -70 -645 l-4 -468 1636 0 1636 0 -3 463 c-5 512 -5 513 -74
655 -60 123 -163 213 -300 264 -54 20 -81 22 -339 25 l-280 4 -245 -172 c-135
-94 -279 -195 -320 -224 l-75 -53 -320 224 -320 224 -255 -2 c-140 0 -266 -3
-280 -5z"/>
</g>
</svg>
