<svg xmlns="http://www.w3.org/2000/svg" id="a" data-name="Layer 1" viewBox="0 0 123.9 126.8">
    <path d="m67.7,94.4h0s0,0,0,0l-5.9-10.1-5.7,9.8h0s-.2.4-.2.4l-1.4,2.5v25.1c0,0,0,.1,0,.2,2.4,1.6,4.9,3.2,7.4,4.7,0,0,0,0,0,0s0,0,0,0c2.4-1.4,4.7-2.9,7-4.4,0,0,0,0,0-.2v-25.3l-1.4-2.4h0Z" style="fill: #f20505; stroke-width: 0px;"></path>
    <path d="m123.7,16.2c-3.2-1.8-6.6-3.5-10-5-6.7-3-13.6-5.4-20.8-7.3C62-4,28,.3.2,16c-.4,3.9,0,8,.1,11.9,0,.1.2.2.3.1,3.2-1.8,6.5-3.4,9.9-4.9,13.7-5.9,29.1-10.2,43.9-10.4v28.8c1,1.7,6.2,10.7,7.4,12.6,1.1-1.9,6.4-10.9,7.4-12.6.2-.2-.4-29,.2-28.9,9.9.6,19.8,2.3,29.3,5.2,8.6,2.6,16.9,6.1,24.7,10.5.1,0,.3,0,.3-.1.2-2.9.3-5.8.3-8.7,0-1.1.1-2.3-.1-3.3Z" style="fill: #f20505; stroke-width: 0px;"></path><path d="m111.8,32.7c-.1,0-.2,0-.3.1-3,14.9-8.6,29.4-16.5,42.1,2.4,2.6,3.8,6.2,3.6,10.1-.4,7.2-6.4,12.9-13.7,13.1s-14.2-6.1-14.2-13.8.8-5.3,2.2-7.5c-2-3.3-3.6-6.3-4.3-7.7,0,0,.5-.8.5-.8,0,0,10.3-17.7,10.3-17.8v-19.4c0-.7-.6-.9-1.1-.9-1.1.1-7.3,11.1-7.5,11.6-1.1,1.9-7.6,13-8.9,15.2,0,0,0,0,0,0,0,0,0,0-.1,0s0,0-.1,0c0,0,0,0,0,0l-7.2-12.3h0c-1.2-2-7.3-12.5-8.6-14.7-.5-.8-1.8-.5-1.8.5,0,0,0,20,0,20,0,0,8.6,14.8,8.7,14.9.4.7,1.2,2.1,1.7,2.8,0,.1.6.8.5,1-1.5,2.5-9.2,15.7-10.8,18.5,0-.1-2.7,5.2-2.9,4.4-14.9-16.4-24.8-37.4-29.5-59.5-3.5,1.5-6.9,3.2-10.2,5,3.4,25.7,15.6,49,32.7,67.1,2.8,2.9,5.7,5.8,8.8,8.3.1.1,1.1-1.8,1.2-1.8h0c3-5.2,7.4-12.6,10.3-17.7h0s0,0,0,0h0s7.2-12.3,7.2-12.3c0-.1.2-.1.3,0,5.6,9.7,13,22.3,18.6,32,22.4-18.4,37.3-45.5,41.9-75.2-3.2-2.2-7.1-3.7-10.7-5.3Z" style="fill: #0c2093; stroke-width: 0px;"></path>
    <ellipse cx="84.8" cy="84.2" rx="11.8" ry="11.7" style="fill: #f20505; stroke-width: 0px;"></ellipse>
</svg>